<?xml version="1.0" encoding="UTF-8" standalone="no"?>
<svg
   xmlns:dc="http://purl.org/dc/elements/1.1/"
   xmlns:cc="http://creativecommons.org/ns#"
   xmlns:rdf="http://www.w3.org/1999/02/22-rdf-syntax-ns#"
   xmlns:svg="http://www.w3.org/2000/svg"
   xmlns="http://www.w3.org/2000/svg"
   xmlns:sodipodi="http://sodipodi.sourceforge.net/DTD/sodipodi-0.dtd"
   xmlns:inkscape="http://www.inkscape.org/namespaces/inkscape"
   width="1404"
   height="1872"
   viewBox="0 0 1404 1872"
   version="1.2"
   id="svg10"
   sodipodi:docname="bg.svg"
   inkscape:version="1.0.1 (3bc2e813f5, 2020-09-07)">
  <metadata
     id="metadata16">
    <rdf:RDF>
      <cc:Work
         rdf:about="">
        <dc:format>image/svg+xml</dc:format>
        <dc:type
           rdf:resource="http://purl.org/dc/dcmitype/StillImage" />
        <dc:title>Artwork</dc:title>
      </cc:Work>
    </rdf:RDF>
  </metadata>
  <defs
     id="defs14" />
  <sodipodi:namedview
     pagecolor="#ffffff"
     bordercolor="#666666"
     borderopacity="1"
     objecttolerance="10"
     gridtolerance="10"
     guidetolerance="10"
     inkscape:pageopacity="0"
     inkscape:pageshadow="2"
     inkscape:window-width="1698"
     inkscape:window-height="1343"
     id="namedview12"
     showgrid="false"
     inkscape:zoom="0.19097222"
     inkscape:cx="586.69225"
     inkscape:cy="638.02143"
     inkscape:window-x="3413"
     inkscape:window-y="62"
     inkscape:window-maximized="0"
     inkscape:current-layer="svg10" />
  <title
     id="title2">Artwork</title>
  <g
     id="g8"
     transform="matrix(1.155253,0,0,1.5421633,-224.58645,-254.099)">
    <path
       fill="#bfbfbf"
       d="m 738.468,758.978 c 0,0 0,0 0,0 0.503,-0.157 1.064,-0.19 1.51,-0.472 0.509,-0.32 0.968,-0.761 1.271,-1.281 0.672,-1.153 1.244,-2.382 1.611,-3.665 0.126,-0.44 0.003,-0.94 -0.173,-1.362 -0.394,-0.944 -1.283,-1.673 -1.51,-2.669 -0.089,-0.393 0.609,-0.606 0.675,-1.003 0.17,-1.012 0.402,-2.131 0.01,-3.08 -1.102,-2.669 -3.031,-4.922 -4.368,-7.481 -4.522,-8.655 -8.351,-17.677 -13.206,-26.149 -1.436,-2.506 -4.013,-4.203 -5.576,-6.632 -1.476,-2.293 -2.159,-5.017 -3.465,-7.411 -0.701,-1.286 -1.782,-2.331 -2.534,-3.588 -1.238,-2.069 -2.163,-4.317 -3.426,-6.371 -1.407,-2.286 -3.27,-4.282 -4.574,-6.629 -2.038,-3.668 -3.338,-7.719 -5.42,-11.362 -0.611,-1.068 -1.948,-1.584 -2.581,-2.639 -2.404,-3.998 -4.203,-8.333 -6.465,-12.412 -1.06,-1.911 -2.45,-3.626 -3.494,-5.545 -0.946,-1.739 -1.511,-3.668 -2.461,-5.405 -1.068,-1.953 -2.475,-3.704 -3.579,-5.636 -1.566,-2.74 -2.801,-5.664 -4.425,-8.37 -0.389,-0.649 -1.176,-0.991 -1.576,-1.632 -1.278,-2.044 -2.185,-4.303 -3.425,-6.37 -0.763,-1.271 -1.818,-2.352 -2.574,-3.628 -2.179,-3.68 -4.171,-7.467 -6.219,-11.221 -2.362,-4.33 -4.862,-8.592 -7.009,-13.032 -1.273,-2.633 -1.948,-5.528 -3.234,-8.154 -0.326,-0.667 -1.176,-0.958 -1.544,-1.602 -0.982,-1.718 -1.428,-3.713 -2.457,-5.401 -0.794,-1.302 -2.209,-2.16 -2.961,-3.486 -0.154,-0.273 0.46,-0.463 0.553,-0.763 0.106,-0.345 0.154,-0.75 0.014,-1.082 -0.395,-0.943 -0.963,-1.813 -1.571,-2.635 -0.616,-0.833 -1.615,-1.383 -2.083,-2.308 -0.143,-0.281 0.631,-0.506 0.51,-0.797 -0.256,-0.617 -1.177,-0.789 -1.424,-1.41 -0.122,-0.304 0.683,-0.534 0.534,-0.825 -2.292,-4.46 -5.37,-8.489 -7.622,-12.969 -0.174,-0.348 0.722,-0.633 0.599,-1.002 -0.269,-0.808 -1.288,-1.202 -1.597,-1.997 -0.114,-0.294 0.631,-0.506 0.51,-0.797 -0.256,-0.617 -1.168,-0.793 -1.424,-1.41 -0.121,-0.291 0.525,-0.482 0.51,-0.797 -0.019,-0.387 -0.598,-0.61 -0.597,-0.998 0,-0.389 0.772,-0.653 0.598,-1.001 -0.591,-1.183 -2.7,-1.68 -2.598,-2.999 0.115,-1.504 2.177,-2.105 3.084,-3.31 1.313,-1.743 2.005,-3.96 3.551,-5.501 4.011,-3.999 8.564,-7.42 12.974,-10.974 2.378,-1.917 5.139,-3.355 7.38,-5.43 2.184,-2.023 3.703,-4.678 5.808,-6.783 0.916,-0.916 2.224,-1.356 3.192,-2.217 2.051,-1.825 4.052,-3.724 5.833,-5.813 1.195,-1.401 1.868,-3.195 3.051,-4.606 0.601,-0.717 1.608,-1.004 2.233,-1.7 0.697,-0.773 0.993,-1.848 1.67,-2.638 1.326,-1.548 2.965,-2.805 4.308,-4.338 1.101,-1.257 2.131,-2.589 3.007,-4.012 0.954,-1.549 1.462,-3.352 2.462,-4.871 0.115,-0.174 0.362,0.549 0.492,0.386 0.706,-0.888 0.836,-2.162 1.594,-3.007 0.646,-0.72 1.852,-0.78 2.47,-1.524 1.057,-1.274 1.334,-3.081 2.401,-4.346 2.462,-2.918 5.276,-5.53 8.099,-8.101 0.724,-0.66 1.85,-0.814 2.498,-1.549 0.824,-0.937 0.958,-2.349 1.768,-3.298 1.127,-1.32 2.765,-2.125 3.947,-3.396 0.716,-0.77 0.999,-1.872 1.692,-2.662 1.739,-1.983 3.951,-3.538 5.57,-5.62 3.065,-3.941 5.478,-8.354 8.43,-12.38 0.725,-0.988 1.918,-1.59 2.573,-2.626 2.23,-3.525 4.118,-7.257 6.026,-10.966 0.9,-1.749 1.425,-3.682 2.393,-5.395 0.373,-0.661 1.136,-1.024 1.581,-1.639 0.896,-1.238 1.115,-3.1 2.421,-3.894 0.611,-0.37 1.243,0.84 1.542,1.489 2.226,4.818 4.298,9.725 5.965,14.764 3.137,9.48 5.439,19.219 8.43,28.747 1.164,3.706 2.575,7.333 4.028,10.936 0.734,1.82 1.812,3.49 2.529,5.317 1.666,4.249 2.869,8.674 4.613,12.891 0.464,1.125 1.591,1.913 1.983,3.065 0.125,0.368 -0.721,0.633 -0.599,1.001 0.27,0.809 1.289,1.203 1.598,1.997 0.114,0.295 -0.631,0.506 -0.51,0.798 0.255,0.617 1.168,0.793 1.424,1.41 0.121,0.291 -0.624,0.503 -0.51,0.797 0.309,0.795 1.328,1.189 1.597,1.997 0.123,0.37 -0.681,0.624 -0.598,1.004 0.078,0.36 0.697,0.301 0.942,0.576 0.531,0.594 0.991,1.264 1.342,1.979 1.1,2.245 1.867,4.645 2.999,6.874 2.279,4.485 4.669,8.919 7.227,13.252 0.376,0.635 1.199,0.937 1.538,1.592 3.271,6.302 6.017,12.867 9.246,19.191 0.64,1.252 1.932,2.162 2.347,3.505 0.209,0.677 -0.924,1.378 -0.64,2.026 0.448,1.021 1.834,1.327 2.502,2.22 0.141,0.189 -0.519,0.365 -0.412,0.576 0.302,0.595 1.166,0.794 1.42,1.411 0.12,0.292 -0.77,0.621 -0.509,0.801 0.446,0.307 1.384,-0.516 1.627,-0.031 0.317,0.631 -0.914,1.378 -0.628,2.023 0.452,1.02 1.888,1.29 2.506,2.218 0.173,0.26 -0.455,0.479 -0.506,0.786 -0.03,0.184 0.167,0.34 0.298,0.471 0.306,0.306 0.57,0.778 0.999,0.826 0.388,0.044 0.627,-0.507 1.007,-0.599 0.137,-0.034 0.344,0.134 0.324,0.275 -0.1,0.711 -0.799,1.35 -0.652,2.053 0.183,0.869 0.86,1.604 1.54,2.176 0.177,0.149 0.38,-0.549 0.564,-0.408 0.622,0.477 1.169,1.148 1.385,1.901 0.128,0.445 -0.777,0.965 -0.466,1.307 0.366,0.402 1.347,-0.493 1.629,-0.029 0.328,0.541 -0.665,1.199 -0.542,1.821 0.134,0.682 0.946,1.049 1.233,1.682 0.137,0.303 -0.178,0.703 -0.021,0.995 0.205,0.381 0.57,0.777 0.999,0.826 0.387,0.044 0.624,-0.514 1.004,-0.598 0.15,-0.033 0.416,0.164 0.349,0.302 -0.395,0.803 -1.967,1.378 -1.569,2.18 0.378,0.763 2.078,-0.919 2.547,-0.208 0.573,0.87 -0.773,2.015 -0.672,3.052 0.053,0.55 0.809,0.773 1.091,1.248 1.236,2.081 2.073,4.397 3.444,6.392 0.48,0.698 1.565,0.831 2.015,1.549 0.172,0.274 -0.621,0.503 -0.53,0.814 0.285,0.984 0.932,1.834 1.537,2.66 0.91,1.242 2.172,2.217 2.991,3.522 0.127,0.202 -0.522,0.369 -0.414,0.582 0.3,0.596 1.174,0.79 1.42,1.411 0.121,0.304 -0.651,0.519 -0.534,0.825 1.27,3.324 2.747,6.588 4.541,9.661 0.421,0.722 1.547,0.816 1.989,1.525 0.172,0.275 -0.61,0.5 -0.53,0.814 0.235,0.923 0.828,1.726 1.375,2.506 0.394,0.561 0.845,1.119 1.425,1.486 0.24,0.152 0.837,-0.331 0.852,-0.047 0.056,1.052 -0.95,2.063 -0.691,3.084 0.67,2.639 2.145,5.008 3.362,7.443 1.155,2.309 2.798,4.377 3.75,6.778 3.449,8.7 5.949,17.758 9.424,26.448 1.2,2.999 3.174,5.632 4.571,8.545 1.964,4.092 3.466,8.4 5.507,12.455 0.988,1.963 2.576,3.585 3.559,5.551 1.359,2.719 2.168,5.684 3.438,8.445 0.324,0.704 0.783,1.355 1.324,1.909 1.503,1.54 3.489,2.618 4.777,4.341 0.409,0.548 0.144,1.383 10e-4,2.052 -0.082,0.383 -0.843,0.637 -0.651,0.978 0.181,0.32 0.812,-0.461 1.083,-0.212 0.827,0.761 1.098,1.972 1.792,2.856 0.509,0.648 1.398,0.982 1.788,1.707 0.16,0.297 -0.034,0.861 -0.361,0.943 -0.378,0.096 -0.627,-0.508 -1.007,-0.597 -0.136,-0.031 -0.379,0.185 -0.295,0.295 0.833,1.091 1.805,2.074 2.814,3.004 0.287,0.265 0.779,0.252 1.036,0.547 0.789,0.904 1.488,1.902 2.033,2.972 0.723,1.418 1.441,2.882 1.748,4.444 0.079,0.397 -0.549,0.625 -0.675,1.009 -0.109,0.335 -0.178,0.752 10e-4,1.055 0.409,0.695 0.996,1.302 1.658,1.762 1.368,0.949 3.115,1.326 4.367,2.422 1.464,1.281 2.237,3.212 3.627,4.574 1.064,1.043 2.343,1.871 3.661,2.566 0.504,0.265 1.195,-0.031 1.688,0.253 0.646,0.37 0.877,1.291 1.551,1.606 0.284,0.134 0.479,-0.533 0.792,-0.508 0.388,0.031 0.591,0.568 0.972,0.65 0.678,0.147 1.422,0.229 2.08,0.01 0.972,-0.323 1.827,-0.949 2.636,-1.577 0.637,-0.495 1.314,-1.031 1.661,-1.759 0.292,-0.611 0.144,-1.349 0.147,-2.026 0.002,-0.688 0.144,-1.429 -0.133,-2.059 -1.35,-3.073 -3.417,-5.806 -4.688,-8.913 -0.152,-0.371 0.895,-0.738 0.621,-1.032 -0.302,-0.326 -0.894,0.489 -1.299,0.303 -0.819,-0.376 -1.483,-1.081 -2.002,-1.818 -0.296,-0.421 -0.402,-0.997 -0.34,-1.508 0.047,-0.387 0.539,-0.601 0.641,-0.977 0.037,-0.134 -0.16,-0.331 -0.294,-0.295 -0.376,0.103 -0.605,0.525 -0.977,0.642 -0.335,0.106 -0.766,0.2 -1.054,-10e-4 -1.05,-0.733 -2.041,-1.61 -2.766,-2.665 -1.09,-1.584 -1.568,-3.528 -2.607,-5.147 -1.948,-3.037 -4.489,-5.677 -6.328,-8.781 -0.808,-1.362 -0.754,-3.12 -1.541,-4.495 -0.586,-1.025 -1.813,-1.555 -2.481,-2.529 -0.836,-1.22 -1.41,-2.608 -1.978,-3.975 -0.607,-1.463 -0.894,-3.05 -1.54,-4.496 -0.221,-0.494 -0.936,-0.721 -1.032,-1.254 -0.07,-0.394 0.75,-0.649 0.622,-1.029 -0.563,-1.674 -1.567,-3.176 -2.533,-4.655 -0.416,-0.635 -1.265,-0.949 -1.582,-1.639 -1.694,-3.692 -2.674,-7.687 -4.388,-11.37 -0.619,-1.332 -1.811,-2.323 -2.569,-3.582 -0.769,-1.277 -1.457,-2.611 -1.998,-4 -3.312,-8.512 -6.019,-17.259 -9.55,-25.682 -1.424,-3.396 -3.357,-6.564 -5.284,-9.703 -0.392,-0.639 -1.255,-0.9 -1.625,-1.552 -0.117,-0.207 0.522,-0.369 0.415,-0.582 -0.301,-0.596 -1.174,-0.79 -1.42,-1.41 -0.117,-0.294 0.462,-0.468 0.554,-0.771 0.102,-0.336 0.167,-0.744 0,-1.052 -0.408,-0.752 -1.358,-1.166 -1.641,-1.973 -0.129,-0.366 0.674,-0.619 0.598,-1.001 -0.107,-0.539 -0.787,-0.79 -1.049,-1.274 -0.596,-1.105 -0.849,-2.382 -1.503,-3.453 -0.63,-1.03 -1.737,-1.728 -2.312,-2.789 -1.018,-1.875 -1.496,-4.002 -2.417,-5.926 -2.621,-5.483 -5.319,-10.934 -8.203,-16.284 -1.042,-1.934 -2.572,-3.584 -3.562,-5.546 -1.374,-2.722 -2.136,-5.726 -3.504,-8.452 -0.331,-0.659 -1.159,-0.958 -1.537,-1.591 -1.621,-2.708 -2.771,-5.682 -4.425,-8.37 -1.024,-1.663 -2.611,-2.942 -3.58,-4.637 -1.712,-2.996 -2.74,-6.347 -4.419,-9.361 -0.505,-0.907 -1.617,-1.387 -2.086,-2.314 -0.143,-0.281 0.631,-0.506 0.51,-0.797 -0.256,-0.617 -1.177,-0.789 -1.424,-1.41 -0.122,-0.304 0.672,-0.528 0.534,-0.825 -1.294,-2.785 -3.365,-5.167 -4.621,-7.969 -0.16,-0.355 0.777,-0.657 0.598,-1.002 -3.818,-7.356 -8.483,-14.25 -12.325,-21.593 -1.042,-1.991 -1.371,-4.29 -2.29,-6.341 -0.683,-1.524 -1.768,-2.841 -2.496,-4.344 -0.779,-1.608 -1.391,-3.291 -2.014,-4.965 -2.164,-5.819 -4.079,-11.731 -6.347,-17.511 -1.401,-3.568 -3.205,-6.967 -4.652,-10.517 -0.83,-2.036 -1.48,-4.14 -2.174,-6.226 -1.82,-5.471 -3.768,-10.903 -5.369,-16.442 -0.193,-0.668 -0.132,-1.406 0.016,-2.086 0.083,-0.383 0.932,-0.706 0.65,-0.978 -0.392,-0.379 -1.357,0.496 -1.636,0.028 -0.516,-0.866 -0.273,-2.021 -0.147,-3.021 0.09,-0.712 0.992,-1.32 0.783,-2.007 -0.129,-0.426 -0.887,0.466 -1.302,0.303 -0.316,-0.125 -0.506,-0.651 -0.358,-0.957 0.321,-0.662 1.415,-0.831 1.573,-1.549 0.103,-0.464 -0.536,-1.052 -1.009,-1.006 -0.664,0.066 -1.41,1.911 -1.555,1.26 -0.372,-1.666 0.877,-3.375 0.704,-5.073 -0.063,-0.616 -0.756,-1.103 -1.351,-1.273 -0.373,-0.108 -0.627,0.706 -1.001,0.598 -0.592,-0.17 -1.119,-0.697 -1.341,-1.272 -0.165,-0.425 -0.066,-1.111 0.336,-1.327 0.345,-0.187 0.631,0.508 1.011,0.6 0.138,0.034 0.29,-0.138 0.325,-0.275 0.086,-0.34 0.171,-0.74 0.011,-1.053 -0.253,-0.493 -0.615,-1.096 -1.162,-1.192 -0.415,-0.072 -0.735,1.177 -0.96,0.822 -1.864,-2.942 -3.34,-6.145 -4.493,-9.43 -0.244,-0.696 0.178,-1.475 0.419,-2.172 0.127,-0.366 0.656,-0.566 0.665,-0.954 0.014,-0.645 -0.261,-1.292 -0.602,-1.84 -0.352,-0.567 -1.166,-0.794 -1.42,-1.411 -0.12,-0.292 0.535,-0.483 0.51,-0.797 -0.031,-0.389 -0.557,-0.593 -0.651,-0.972 -0.216,-0.873 0.06,-1.842 -0.253,-2.685 -0.267,-0.72 -1.094,-1.121 -1.417,-1.817 -0.118,-0.256 0.339,-0.58 0.194,-0.821 -1.001,-1.668 -2.619,-2.937 -3.494,-4.675 -0.18,-0.358 0.695,-0.635 0.622,-1.029 -0.1,-0.541 -0.787,-0.79 -1.049,-1.274 -0.595,-1.104 -0.884,-2.358 -1.5,-3.45 -0.238,-0.421 -0.602,-0.791 -1.025,-1.025 -1.171,-0.646 -2.386,-1.279 -3.689,-1.579 -0.321,-0.073 -0.525,0.671 -0.827,0.54 -0.675,-0.294 -0.879,-1.272 -1.551,-1.575 -0.364,-0.163 -0.806,0.147 -1.141,0.364 -0.561,0.363 -0.834,1.211 -1.49,1.342 -0.695,0.139 -1.393,-0.958 -2.027,-0.641 -1.392,0.694 -2.472,1.981 -3.299,3.298 -0.207,0.33 0.661,0.62 0.597,1.004 -0.055,0.334 -0.669,0.266 -0.854,0.549 -0.536,0.82 -0.898,1.746 -1.243,2.662 -1.561,4.152 -2.685,8.472 -4.47,12.533 -0.407,0.925 -1.623,1.327 -2.03,2.252 -0.157,0.356 0.755,0.646 0.598,1.002 -0.408,0.926 -1.571,1.354 -2.033,2.255 -2.074,4.045 -3.448,8.424 -5.519,12.471 -1.762,3.443 -3.815,6.737 -5.958,9.957 -1.849,2.776 -3.909,5.41 -6.004,8.006 -0.768,0.952 -1.806,1.665 -2.57,2.62 -0.579,0.723 -0.823,1.682 -1.432,2.38 -0.366,0.419 -1.046,0.469 -1.417,0.884 -2.574,2.874 -4.711,6.13 -7.368,8.928 -1.051,1.106 -2.554,1.692 -3.688,2.713 -2.135,1.922 -4.228,3.911 -6.095,6.095 -1.985,2.321 -3.496,5.016 -5.43,7.38 -1.075,1.314 -2.555,2.269 -3.574,3.626 -0.999,1.332 -1.382,3.068 -2.422,4.368 -1.65,2.061 -3.843,3.632 -5.574,5.626 -0.975,1.123 -1.904,2.33 -2.513,3.687 -0.128,0.285 0.676,0.525 0.506,0.787 -0.462,0.714 -1.421,0.953 -2.022,1.555 -0.551,0.55 -0.74,1.458 -1.402,1.869 -0.266,0.165 -0.485,-0.443 -0.792,-0.507 -0.138,-0.029 -0.341,0.134 -0.322,0.274 0.093,0.702 0.532,1.327 0.629,2.028 0.021,0.156 -0.182,0.262 -0.3,0.366 -0.72,0.633 -1.333,1.452 -2.209,1.841 -0.287,0.128 -0.484,-0.563 -0.793,-0.508 -0.424,0.075 -0.851,0.419 -0.997,0.824 -0.22,0.612 0.345,1.399 0,1.949 -0.731,1.163 -1.799,2.157 -3,2.824 -0.34,0.19 -0.728,-0.872 -1.004,-0.598 -0.315,0.313 0.367,0.858 0.302,1.297 -0.048,0.328 -0.34,0.592 -0.609,0.784 -0.835,0.594 -1.666,1.293 -2.66,1.541 -0.39,0.097 -0.684,-0.82 -1.033,-0.622 -0.321,0.183 0.48,0.833 0.213,1.087 -1.201,1.143 -2.866,1.682 -4.182,2.69 -0.535,0.409 -1.312,0.852 -1.326,1.526 -0.009,0.445 0.885,-0.46 1.302,-0.303 0.311,0.118 0.56,0.664 0.36,0.929 -0.578,0.768 -1.419,1.401 -2.335,1.692 -0.382,0.122 -0.637,-0.537 -1.028,-0.621 -0.183,-0.04 -0.342,0.167 -0.474,0.299 -0.305,0.306 -0.777,0.57 -0.825,0.999 -0.044,0.387 0.745,0.642 0.598,1.002 -0.341,0.835 -1.019,1.591 -1.824,1.999 -0.442,0.224 -0.952,-0.343 -1.448,-0.343 -0.515,0 -1.087,0.044 -1.508,0.341 -0.737,0.519 -1.479,1.166 -1.818,2.001 -0.147,0.361 0.684,0.622 0.598,1.002 -0.119,0.531 -0.554,1.259 -1.097,1.211 -0.66,-0.058 -0.723,-1.351 -1.382,-1.43 -0.415,-0.05 -0.241,0.834 -0.162,1.244 0.06,0.307 0.757,0.525 0.55,0.758 -2.027,2.286 -4.267,4.415 -6.735,6.217 -0.477,0.348 -1.331,-0.399 -1.772,-0.005 -0.299,0.268 0.756,0.654 0.622,1.033 -0.426,1.199 -1.154,4.01 -2.117,3.177 -2.174,-1.88 -2.16,-5.33 -3.38,-7.932 -4.513,-9.625 -9.166,-19.183 -13.817,-28.742 -0.695,-1.428 -1.346,-2.89 -2.221,-4.216 -0.572,-0.868 -1.67,-1.364 -2.087,-2.316 -0.161,-0.367 0.729,-0.643 0.622,-1.029 -0.404,-1.447 -1.458,-2.634 -2.03,-4.023 -0.629,-1.525 -0.903,-3.183 -1.562,-4.695 -0.216,-0.495 -0.935,-0.72 -1.031,-1.252 -0.07,-0.395 0.795,-0.668 0.623,-1.03 -1.077,-2.259 -2.866,-4.113 -4.11,-6.285 -1.474,-2.575 -2.753,-5.258 -4.033,-7.934 -0.899,-1.878 -1.944,-3.718 -2.502,-5.724 -0.108,-0.386 0.776,-0.659 0.621,-1.029 -1.085,-2.588 -3.03,-4.755 -4.13,-7.337 -1.427,-3.352 -2.112,-6.979 -3.416,-10.38 -0.197,-0.516 -0.953,-0.738 -1.053,-1.281 -0.072,-0.397 0.724,-0.643 0.629,-1.035 -0.562,-2.315 -1.478,-4.543 -2.504,-6.693 -1.199,-2.511 -3.067,-4.681 -4.148,-7.244 -0.161,-0.381 0.797,-0.673 0.646,-1.058 -0.58,-1.476 -2.036,-2.497 -2.623,-3.97 -0.149,-0.375 0.784,-0.662 0.629,-1.035 -1.716,-4.142 -4.207,-7.925 -6.036,-12.018 -1.709,-3.822 -2.859,-7.877 -4.566,-11.699 -1.305,-2.921 -3.113,-5.596 -4.456,-8.5 -1.514,-3.276 -2.875,-6.626 -4.105,-10.019 -0.865,-2.387 -1.557,-4.837 -2.172,-7.3 -1.528,-6.117 -2.723,-12.314 -4.255,-18.429 -0.254,-1.016 -1.008,-1.899 -1.099,-2.942 -0.064,-0.718 0.74,-1.343 0.659,-2.06 -0.06,-0.539 -0.862,-0.743 -1.033,-1.258 -1.054,-3.178 -2.012,-6.406 -2.601,-9.702 -0.075,-0.418 0.733,-0.66 0.673,-1.08 -0.623,-4.382 -1.466,-8.749 -2.675,-13.007 -0.686,-2.418 -2.278,-4.512 -2.985,-6.924 -0.117,-0.396 0.739,-0.655 0.645,-1.057 -0.231,-0.984 -0.729,-1.988 -1.509,-2.631 -1.061,-0.874 -2.427,-1.35 -3.755,-1.706 -0.985,-0.263 -2.04,-0.2 -3.056,-0.119 -0.519,0.042 -1.037,0.217 -1.485,0.483 -0.573,0.34 -0.876,1.122 -1.517,1.301 -0.375,0.105 -0.615,-0.642 -1.002,-0.598 -0.429,0.048 -0.847,0.421 -0.999,0.826 -0.151,0.401 0.389,0.877 0.212,1.268 -0.275,0.609 -1.169,0.793 -1.424,1.41 -0.121,0.292 0.629,0.505 0.51,0.798 -0.323,0.791 -1.441,1.139 -1.64,1.97 -0.169,0.704 0.775,1.347 0.675,2.064 -0.237,1.702 -0.8,3.39 -1.644,4.887 -3.548,6.295 -7.863,12.133 -11.476,18.39 -2.706,4.686 -4.666,9.784 -7.466,14.414 -1.389,2.296 -3.647,3.982 -5.046,6.271 -0.203,0.332 0.728,0.635 0.598,1.002 -0.433,1.225 -1.616,2.076 -2.111,3.278 -2.387,5.8 -3.975,11.917 -6.504,17.656 -0.878,1.991 -2.098,3.89 -3.659,5.406 -0.376,0.366 -1.119,-0.039 -1.532,-0.363 -0.727,-0.572 -0.941,-1.671 -1.709,-2.186 -0.26,-0.175 -0.485,0.443 -0.792,0.507 -0.138,0.029 -0.341,-0.134 -0.322,-0.274 0.093,-0.7 0.543,-1.322 0.628,-2.023 0.024,-0.198 -0.163,-0.385 -0.323,-0.505 -0.887,-0.667 -1.999,-1.045 -2.783,-1.831 -0.734,-0.738 -1.02,-1.825 -1.669,-2.638 -0.685,-0.858 -1.679,-1.448 -2.312,-2.344 -0.959,-1.361 -1.501,-2.981 -2.422,-4.368 -0.409,-0.614 -1.186,-0.944 -1.539,-1.592 -1.258,-2.309 -1.984,-4.883 -3.246,-7.191 -0.76,-1.39 -1.972,-2.493 -2.792,-3.849 -1.767,-2.919 -3.409,-5.916 -4.959,-8.957 -0.851,-1.669 -1.388,-3.487 -2.236,-5.158 -2.43,-4.787 -4.667,-9.701 -7.591,-14.203 -0.79,-1.216 -1.995,-2.352 -3.4,-2.717 -2.275,-0.592 -4.742,-0.436 -7.052,0 -0.793,0.149 -1.273,1.017 -1.759,1.661 -3.038,4.028 -5.671,8.357 -8.789,12.324 -0.579,0.737 -1.672,0.954 -2.236,1.703 -0.89,1.185 -1.46,2.589 -2.023,3.96 -0.927,2.255 -1.355,4.712 -2.437,6.898 -0.13,0.263 -0.46,-0.601 -0.733,-0.492 -0.568,0.225 -1.127,0.709 -1.296,1.296 -0.108,0.374 0.526,0.603 0.642,0.974 0.104,0.335 0.285,0.866 -0.013,1.052 -0.461,0.287 -1.234,-0.402 -1.629,-0.029 -0.283,0.268 0.762,0.651 0.598,1.005 -0.736,1.586 -2.155,2.766 -3.046,4.271 -1.618,2.732 -2.74,5.749 -4.466,8.413 -1.965,3.034 -4.471,5.683 -6.572,8.625 -1.236,1.731 -2.125,3.7 -3.43,5.38 -1.03,1.325 -2.559,2.22 -3.535,3.585 -0.72,1.008 -0.695,2.447 -1.468,3.416 -0.604,0.756 -1.754,0.875 -2.472,1.524 -0.968,0.875 -1.482,2.209 -2.526,2.993 -0.25,0.188 -0.483,-0.445 -0.79,-0.505 -0.135,-0.027 -0.324,0.158 -0.293,0.293 0.09,0.379 0.746,0.644 0.598,1.005 -0.563,1.377 -1.545,2.56 -2.516,3.689 -0.363,0.422 -1.049,0.466 -1.417,0.884 -1.104,1.253 -1.787,2.85 -2.94,4.06 -2.65,2.781 -5.71,5.145 -8.424,7.864 -0.877,0.879 -1.089,2.818 -2.328,2.908 -1.003,0.074 -1.099,-1.698 -1.482,-2.628 -0.604,-1.467 -0.812,-3.081 -1.464,-4.527 -0.755,-1.674 -1.926,-3.135 -2.736,-4.783 -1.767,-3.595 -3.003,-7.453 -4.986,-10.933 -2.427,-4.257 -4.73,-8.741 -8.2,-12.201 -1.715,-1.711 -4.428,-1.999 -6.746,-2.701 -0.665,-0.202 -1.497,-0.345 -2.086,0.025 -1.32,0.83 -2.454,2.016 -3.272,3.344 -0.203,0.33 0.76,0.646 0.597,0.999 -1.553,3.376 -3.508,6.561 -5.514,9.689 -0.434,0.677 -1.018,1.336 -1.758,1.652 -0.42,0.179 -1.11,0.065 -1.327,-0.336 -0.187,-0.344 0.51,-0.629 0.598,-1.01 0.032,-0.135 -0.179,-0.372 -0.294,-0.295 -0.752,0.5 -1.451,1.109 -2.003,1.824 -0.158,0.204 -0.259,0.729 -0.005,0.773 0.385,0.068 0.629,-0.506 1.01,-0.598 0.137,-0.034 0.29,0.137 0.324,0.275 0.084,0.34 0.186,0.752 0.004,1.052 -0.194,0.32 -0.736,0.267 -0.978,0.552 -0.958,1.131 -1.482,2.621 -2.568,3.63 -0.229,0.213 -0.482,-0.562 -0.791,-0.507 -0.424,0.075 -0.871,0.412 -0.997,0.824 -0.145,0.48 0.404,0.984 0.299,1.475 -0.09,0.422 -0.422,0.844 -0.826,0.999 -0.551,0.211 -1.322,-0.387 -1.772,-0.004 -0.296,0.253 0.642,0.617 0.598,1.005 -0.049,0.429 -0.412,0.873 -0.825,0.999 -0.48,0.146 -0.984,-0.404 -1.475,-0.299 -0.422,0.09 -0.878,0.411 -0.999,0.825 -0.143,0.492 0.482,1.016 0.322,1.502 -0.279,0.844 -0.817,1.66 -1.538,2.18 -0.253,0.182 -0.479,-0.455 -0.787,-0.506 -0.183,-0.03 -0.34,0.167 -0.472,0.298 -0.971,0.971 -2.163,1.796 -2.824,2.999 -0.187,0.341 0.595,0.588 0.642,0.974 0.062,0.511 -0.083,1.06 -0.34,1.506 -0.216,0.374 -0.573,0.773 -1.002,0.82 -0.387,0.043 -0.621,-0.521 -1.002,-0.598 -0.183,-0.037 -0.339,0.17 -0.474,0.299 -1.117,1.066 -2.424,1.988 -3.275,3.276 -1.09,1.65 -1.368,3.75 -2.457,5.401 -0.549,0.832 -1.713,1.09 -2.337,1.869 -0.751,0.938 -0.943,2.246 -1.703,3.177 -3.005,3.679 -6.488,6.946 -9.538,10.587 -1.399,1.67 -2.323,3.712 -3.789,5.324 -1.888,2.076 -4.349,3.583 -6.217,5.678 -2.031,2.279 -3.452,5.048 -5.424,7.378 -1.705,2.015 -3.846,3.628 -5.576,5.622 -1.731,1.996 -2.963,4.406 -4.783,6.321 -1.344,1.415 -3.238,2.217 -4.63,3.585 -0.165,0.162 0.556,0.386 0.408,0.564 -0.824,0.99 -2.177,1.465 -2.954,2.493 -0.819,1.083 -0.967,2.563 -1.722,3.692 -0.61,0.912 -1.632,1.483 -2.313,2.343 -0.568,0.717 -0.761,1.709 -1.407,2.356 -0.693,0.693 -1.761,0.904 -2.497,1.551 -0.419,0.367 -0.49,1.024 -0.885,1.417 -0.898,0.893 -2.093,1.462 -2.95,2.395 -0.711,0.774 -1,1.87 -1.693,2.661 -0.367,0.418 -1.042,0.472 -1.417,0.884 -3.061,3.366 -5.702,7.104 -8.842,10.397 -0.894,0.938 -2.271,1.307 -3.19,2.221 -0.694,0.691 -0.923,1.744 -1.549,2.498 -0.932,1.122 -1.973,2.163 -3.095,3.095 -0.754,0.626 -1.807,0.855 -2.498,1.549 -0.734,0.738 -0.965,1.872 -1.669,2.638 -2.88,3.137 -5.944,6.103 -9.038,9.028 -0.305,0.288 -0.823,0.277 -1.119,0.574 -1.226,1.228 -2.104,2.788 -3.394,3.949 -2.06,1.854 -4.535,3.208 -6.606,5.051 -1.04,0.926 -1.626,2.294 -2.676,3.211 -2.756,2.407 -6.112,4.113 -8.687,6.713 -1.181,1.191 -1.761,2.876 -2.363,4.441 -0.16,0.417 -0.004,0.911 0.143,1.332 0.425,1.219 0.741,2.545 1.557,3.543 0.64,0.782 1.621,1.322 2.606,1.548 1.325,0.305 2.792,0.424 4.08,-0.011 0.988,-0.333 1.447,-1.514 2.284,-2.136 1.38,-1.026 2.969,-1.751 4.339,-2.789 0.658,-0.498 0.924,-1.53 1.706,-1.793 0.562,-0.189 1.081,0.833 1.649,0.665 0.355,-0.104 -0.387,-0.76 -0.214,-1.087 0.39,-0.741 1.065,-1.315 1.74,-1.809 1.811,-1.325 3.97,-2.163 5.678,-3.618 0.237,-0.202 -0.455,-0.479 -0.506,-0.787 -0.03,-0.183 0.167,-0.339 0.298,-0.471 0.305,-0.305 0.573,-0.748 0.997,-0.824 0.307,-0.055 0.539,0.696 0.787,0.506 1.116,-0.855 1.583,-2.409 2.741,-3.208 0.414,-0.285 0.976,0.3 1.478,0.299 0.159,-10e-4 0.255,-0.19 0.367,-0.302 6.563,-6.496 12.963,-13.159 19.658,-19.52 0.854,-0.811 2.112,-1.12 2.944,-1.954 2.776,-2.783 5.349,-5.77 7.813,-8.833 1.616,-2.009 2.711,-4.414 4.407,-6.356 0.645,-0.738 1.764,-0.9 2.498,-1.549 2.057,-1.818 4.01,-3.76 5.833,-5.813 0.698,-0.786 1.039,-1.838 1.692,-2.662 1.25,-1.577 2.459,-3.226 4.001,-4.518 0.24,-0.201 0.483,0.445 0.79,0.505 0.135,0.027 0.324,-0.159 0.293,-0.293 -0.09,-0.379 -0.769,-0.654 -0.598,-1.005 0.494,-1.017 1.499,-1.697 2.299,-2.497 0.302,-0.302 0.575,-0.758 0.999,-0.801 0.388,-0.04 0.626,0.509 1.005,0.597 0.135,0.032 0.326,-0.159 0.294,-0.294 -0.088,-0.379 -0.744,-0.644 -0.597,-1.005 0.555,-1.369 1.395,-2.675 2.491,-3.665 1.619,-1.462 3.723,-2.282 5.498,-3.549 0.503,-0.359 1.099,-0.729 1.309,-1.31 0.172,-0.472 -0.447,-0.998 -0.298,-1.478 0.108,-0.348 0.706,-0.284 0.933,-0.569 1.287,-1.623 2.163,-3.563 3.558,-5.094 0.66,-0.724 1.746,-0.921 2.498,-1.549 1.196,-0.999 2.282,-2.13 3.311,-3.301 0.276,-0.314 0.261,-0.838 0.573,-1.118 1.59,-1.428 3.491,-2.487 5.06,-3.94 0.852,-0.789 1.524,-1.764 2.153,-2.741 0.902,-1.4 1.395,-3.059 2.424,-4.369 0.808,-1.028 2.212,-1.486 2.997,-2.532 0.187,-0.25 -0.455,-0.479 -0.506,-0.787 -0.03,-0.183 0.17,-0.337 0.298,-0.472 1.236,-1.304 2.627,-2.462 3.785,-3.835 0.678,-0.804 0.979,-1.89 1.692,-2.662 1.225,-1.326 2.988,-2.128 4.068,-3.575 1.871,-2.508 3.017,-5.487 4.673,-8.142 0.175,-0.281 0.453,-0.607 0.784,-0.609 0.388,-0.003 0.623,0.508 1.002,0.597 0.135,0.031 0.326,-0.16 0.295,-0.295 -0.089,-0.379 -0.801,-0.672 -0.598,-1.005 1.886,-3.09 4.162,-5.937 6.514,-8.689 2.02,-2.363 4.58,-4.232 6.57,-6.62 1.361,-1.634 2.109,-3.714 3.43,-5.38 1.834,-2.313 3.271,-5.39 6,-6.514 1.175,-0.484 1.685,1.977 2.108,3.175 0.134,0.379 -0.805,0.675 -0.622,1.033 0.162,0.316 0.869,-0.51 1.047,-0.203 1.447,2.488 2.159,5.342 3.44,7.92 1.24,2.495 3.023,4.713 4.111,7.278 0.152,0.358 -0.721,0.633 -0.598,1.002 0.269,0.808 1.288,1.202 1.597,1.996 0.114,0.295 -0.631,0.506 -0.51,0.798 0.256,0.617 1.177,0.789 1.424,1.41 0.121,0.304 -0.665,0.525 -0.534,0.825 0.633,1.454 2.032,2.497 2.621,3.969 0.149,0.372 -0.735,0.645 -0.621,1.029 0.885,2.997 2.232,5.84 3.496,8.698 3.263,7.378 6.324,14.862 10.079,22.001 1.8,3.423 4.471,6.317 6.534,9.588 1.925,3.052 3.37,6.402 5.424,9.369 0.966,1.395 2.59,2.243 3.574,3.626 2.415,3.395 4.676,6.924 6.571,10.635 0.239,0.468 -0.071,1.093 -0.354,1.536 -0.457,0.719 -1.273,1.149 -1.787,1.829 -2.564,3.396 -4.793,7.04 -7.43,10.38 -2.37,3.001 -5.232,5.594 -7.57,8.62 -3.336,4.317 -6.193,8.987 -9.43,13.38 -1.432,1.944 -3.167,3.655 -4.57,5.62 -1.935,2.708 -3.472,5.688 -5.43,8.38 -0.72,0.989 -1.836,1.641 -2.57,2.62 -1.276,1.701 -2.101,3.719 -3.43,5.38 -1.353,1.691 -3.16,2.975 -4.57,4.62 -0.602,0.703 -0.82,1.684 -1.43,2.38 -1.65,1.882 -3.307,3.809 -5.31,5.31 -0.473,0.354 -1.325,-0.39 -1.773,-0.004 -0.296,0.254 0.524,0.605 0.641,0.977 0.106,0.335 0.134,0.73 -0.001,1.054 -0.165,0.397 -0.537,0.673 -0.843,0.973 -0.809,0.792 -1.481,1.805 -2.498,2.299 -0.35,0.17 -0.615,-0.642 -1.002,-0.598 -0.429,0.048 -0.915,0.402 -0.999,0.825 -0.163,0.826 0.752,1.767 0.342,2.501 -0.966,1.732 -2.902,2.724 -4.127,4.283 -1.393,1.771 -2.309,3.884 -3.692,5.662 -0.702,0.903 -1.495,1.824 -2.522,2.327 -0.35,0.172 -0.615,-0.642 -1.002,-0.598 -0.429,0.048 -0.915,0.402 -0.999,0.825 -0.163,0.826 0.667,1.725 0.342,2.501 -0.42,1.003 -1.369,1.786 -2.342,2.272 -0.348,0.175 -0.625,-0.509 -1.004,-0.598 -0.135,-0.031 -0.326,0.16 -0.295,0.295 0.089,0.379 0.833,0.693 0.597,1.002 -0.834,1.091 -2.45,1.401 -3.273,2.499 -0.306,0.407 0.535,1.065 0.273,1.501 -0.574,0.957 -1.888,1.29 -2.506,2.218 -0.173,0.26 0.455,0.479 0.506,0.787 0.03,0.183 -0.167,0.339 -0.298,0.47 -0.306,0.306 -0.57,0.777 -0.999,0.826 -0.388,0.044 -0.626,-0.509 -1.005,-0.598 -0.135,-0.031 -0.326,0.16 -0.295,0.295 0.089,0.38 0.811,0.68 0.598,1.007 -0.701,1.075 -2.074,1.549 -2.903,2.528 -1.356,1.601 -2.259,3.548 -3.606,5.157 -2.015,2.408 -4.42,4.469 -6.454,6.862 -4.758,5.594 -9.048,11.58 -13.91,17.083 -1.772,2.006 -4.089,3.469 -5.949,5.394 -2.552,2.643 -5.068,5.345 -7.266,8.289 -1.715,2.298 -2.706,5.081 -4.426,7.374 -2.295,3.059 -5.149,5.66 -7.57,8.62 -0.586,0.716 -0.799,1.703 -1.43,2.38 -1.53,1.644 -3.546,2.806 -4.995,4.521 -0.202,0.239 0.462,0.48 0.506,0.789 0.029,0.197 -0.162,0.383 -0.321,0.503 -0.879,0.659 -2.064,0.954 -2.757,1.806 -0.808,0.995 -0.83,2.461 -1.563,3.511 -0.444,0.636 -1.453,0.737 -1.863,1.396 -0.165,0.264 0.46,0.477 0.504,0.784 0.028,0.197 -0.154,0.394 -0.321,0.502 -1.159,0.761 -2.571,1.151 -3.607,2.074 -1.918,1.71 -3.529,3.742 -5.153,5.734 -0.664,0.815 -0.987,1.882 -1.692,2.662 -2.38,2.636 -5.098,4.949 -7.524,7.543 -0.286,0.306 -0.277,0.822 -0.573,1.118 -2.316,2.319 -4.943,4.318 -7.216,6.679 -1.796,1.864 -3.443,3.876 -4.965,5.969 -0.643,0.883 -0.814,2.063 -1.499,2.913 -0.138,0.172 -0.356,-0.534 -0.528,-0.397 -0.722,0.575 -1.047,1.535 -1.708,2.179 -0.312,0.302 -0.904,0.249 -1.154,0.605 -1.356,1.927 -2.229,4.164 -3.568,6.103 -0.562,0.814 -1.323,1.485 -2.098,2.101 -0.767,0.609 -1.814,0.848 -2.498,1.549 -0.706,0.726 -1.355,1.619 -1.554,2.612 -0.333,1.66 -0.536,3.477 0.011,5.08 0.412,1.21 1.672,1.95 2.661,2.759 0.792,0.647 1.692,1.176 2.635,1.571 0.333,0.14 0.849,0.26 1.082,-0.015 1.281,-1.514 1.871,-3.539 3.184,-5.025 0.986,-1.116 2.545,-1.596 3.597,-2.65 0.737,-0.739 0.996,-1.854 1.681,-2.641 0.283,-0.324 0.841,-0.294 1.145,-0.599 2.477,-2.489 4.865,-5.07 7.151,-7.736 0.843,-0.983 1.299,-2.277 2.217,-3.192 3.681,-3.667 7.424,-7.304 11.523,-10.498 0.513,-0.399 1.399,0.345 1.95,0 1.308,-0.82 2.373,-2.022 3.275,-3.275 0.795,-1.105 0.801,-2.71 1.741,-3.695 0.416,-0.436 1.349,0.365 1.807,-0.026 0.297,-0.253 -0.52,-0.623 -0.597,-1.005 -0.037,-0.183 0.179,-0.331 0.299,-0.474 1.053,-1.261 1.937,-2.703 3.216,-3.733 0.244,-0.196 0.483,0.444 0.79,0.505 0.134,0.027 0.317,-0.156 0.291,-0.291 -0.058,-0.296 -0.714,-0.548 -0.497,-0.758 1.801,-1.744 4.158,-2.84 5.985,-4.558 0.766,-0.721 1.035,-1.841 1.692,-2.662 0.685,-0.857 1.679,-1.448 2.312,-2.344 0.959,-1.361 1.358,-3.087 2.422,-4.368 2.208,-2.656 5.001,-4.776 7.312,-7.344 0.703,-0.782 0.999,-1.872 1.692,-2.662 1.739,-1.983 3.922,-3.561 5.57,-5.62 3.7,-4.624 6.885,-9.638 10.433,-14.379 0.198,-0.265 0.453,-0.607 0.784,-0.609 0.388,-0.003 0.621,0.515 1.001,0.597 0.155,0.033 0.252,-0.193 0.367,-0.302 0.82,-0.769 1.721,-1.464 2.438,-2.331 0.663,-0.802 0.972,-1.866 1.669,-2.638 0.6,-0.665 1.565,-0.93 2.156,-1.602 0.798,-0.907 1.116,-2.178 1.943,-3.058 2.251,-2.395 5.08,-4.217 7.232,-6.702 3.083,-3.56 5.444,-7.695 8.407,-11.356 2.702,-3.338 5.887,-6.267 8.57,-9.62 1.329,-1.661 2.154,-3.679 3.43,-5.38 0.734,-0.979 1.836,-1.641 2.57,-2.62 1.276,-1.701 2.193,-3.65 3.43,-5.38 2.909,-4.067 5.814,-8.147 9,-12 1.681,-2.033 3.831,-3.637 5.57,-5.62 0.693,-0.791 1,-1.871 1.692,-2.662 1.652,-1.889 3.656,-3.45 5.308,-5.338 0.692,-0.791 1.015,-1.857 1.692,-2.662 1.072,-1.275 2.424,-2.292 3.523,-3.543 0.277,-0.315 0.278,-0.822 0.574,-1.119 0.984,-0.986 2.279,-1.64 3.211,-2.676 0.995,-1.106 1.904,-2.33 2.513,-3.687 0.128,-0.285 -0.696,-0.539 -0.506,-0.787 0.855,-1.116 2.364,-1.616 3.208,-2.741 0.255,-0.34 -0.463,-0.919 -0.208,-1.259 0.844,-1.125 2.364,-1.616 3.208,-2.741 0.255,-0.34 -0.463,-0.919 -0.208,-1.259 0.844,-1.125 2.364,-1.616 3.208,-2.741 0.255,-0.34 -0.464,-0.919 -0.208,-1.259 0.845,-1.123 2.342,-1.629 3.21,-2.734 0.453,-0.577 0.164,-1.525 0.598,-2.116 0.55,-0.748 1.596,-1.001 2.207,-1.7 0.973,-1.111 1.89,-2.315 2.491,-3.663 0.127,-0.285 -0.691,-0.536 -0.506,-0.787 0.698,-0.95 1.93,-1.382 2.732,-2.245 1.348,-1.45 2.369,-3.18 3.685,-4.659 1.443,-1.621 3.247,-2.916 4.58,-4.628 1.022,-1.314 1.455,-3.013 2.422,-4.368 0.713,-0.997 1.808,-1.669 2.574,-2.626 0.578,-0.723 0.822,-1.683 1.432,-2.38 0.369,-0.422 1.069,-0.459 1.428,-0.891 2.368,-2.847 4.334,-6.012 6.689,-8.87 1.697,-2.058 3.741,-3.812 5.451,-5.859 0.593,-0.71 0.828,-1.677 1.43,-2.38 1.41,-1.645 3.254,-2.899 4.57,-4.62 3.033,-3.966 5.404,-8.409 8.43,-12.38 2.318,-3.042 5.181,-5.634 7.57,-8.62 2.949,-3.686 5.481,-7.694 8.43,-11.38 1.059,-1.323 2.537,-2.277 3.57,-3.62 2.311,-3.005 4.192,-6.32 6.43,-9.38 0.91,-1.244 1.795,-2.559 3.001,-3.518 0.244,-0.194 0.48,0.561 0.786,0.506 0.425,-0.076 0.877,-0.41 0.998,-0.824 0.142,-0.492 -0.483,-1.016 -0.322,-1.502 0.279,-0.844 0.817,-1.66 1.538,-2.18 0.253,-0.182 0.495,0.617 0.787,0.506 0.571,-0.217 1.127,-0.71 1.296,-1.297 0.108,-0.374 -0.526,-0.603 -0.642,-0.974 -0.104,-0.335 -0.296,-0.885 0.013,-1.052 0.401,-0.218 0.902,0.483 1.331,0.324 0.574,-0.212 1.128,-0.71 1.298,-1.298 0.108,-0.374 -0.525,-0.603 -0.642,-0.974 -0.106,-0.335 -0.175,-0.75 0.001,-1.054 0.308,-0.534 0.749,-1.102 1.341,-1.272 0.375,-0.108 0.626,0.509 1.005,0.597 0.135,0.032 0.328,-0.159 0.294,-0.294 -0.096,-0.39 -0.737,-0.648 -0.621,-1.033 0.333,-1.105 0.92,-2.223 1.82,-2.946 0.397,-0.32 1.038,0.48 1.503,0.274 0.825,-0.365 1.586,-1.022 2,-1.824 0.229,-0.446 -0.544,-1.037 -0.299,-1.476 1.089,-1.952 2.874,-3.438 4.088,-5.315 1.086,-1.68 1.616,-3.694 2.787,-5.316 0.594,-0.821 1.859,-1.009 2.4,-1.866 0.271,-0.43 -0.286,-0.992 -0.274,-1.5 0.005,-0.2 0.167,-0.379 0.323,-0.505 1.203,-0.974 2.731,-1.585 3.725,-2.772 1.148,-1.372 1.972,-3.03 2.549,-4.724 0.126,-0.368 -0.745,-0.641 -0.598,-1.002 0.555,-1.369 1.526,-2.547 2.492,-3.666 0.553,-0.641 1.5,-0.876 2.011,-1.551 0.14,-0.185 -0.55,-0.381 -0.408,-0.564 0.568,-0.731 1.67,-0.945 2.18,-1.716 0.241,-0.365 -0.369,-0.9 -0.188,-1.297 0.276,-0.608 1.118,-0.816 1.42,-1.411 0.107,-0.211 -0.554,-0.387 -0.412,-0.576 0.667,-0.893 1.944,-1.255 2.502,-2.22 0.23,-0.398 -0.637,-0.873 -0.465,-1.301 0.295,-0.736 1.037,-1.215 1.667,-1.697 0.092,-0.071 0.203,0.289 0.282,0.204 0.603,-0.653 1.295,-1.322 1.54,-2.176 0.11,-0.386 -0.698,-0.637 -0.621,-1.031 0.07,-0.358 0.691,-0.296 0.932,-0.569 0.648,-0.733 1.399,-1.466 1.689,-2.4 0.12,-0.383 -0.7,-0.638 -0.621,-1.031 0.073,-0.362 0.727,-0.278 0.944,-0.576 1.01,-1.385 2.023,-2.806 2.677,-4.391 0.123,-0.299 -0.703,-0.54 -0.53,-0.814 0.45,-0.718 1.454,-0.914 2.015,-1.549 0.789,-0.895 1.367,-1.959 1.98,-2.982 1.856,-3.095 3.475,-6.332 5.424,-9.369 1.043,-1.625 2.51,-2.952 3.536,-4.588 0.666,-1.064 0.855,-2.378 1.503,-3.453 0.381,-0.632 1.118,-0.985 1.539,-1.591 1.269,-1.83 2.621,-3.642 3.51,-5.683 0.156,-0.357 -0.758,-0.647 -0.598,-1.002 0.408,-0.909 1.155,-2.669 2.033,-2.194 1.306,0.706 1.337,2.696 1.598,4.158 0.074,0.415 -0.756,0.663 -0.665,1.074 1.269,5.714 3.392,11.215 4.662,16.929 0.091,0.41 -0.763,0.664 -0.662,1.071 0.598,2.402 2.151,4.512 2.655,6.935 0.147,0.711 -0.724,1.306 -0.791,2.028 -0.048,0.516 0.203,1.036 0.466,1.482 0.339,0.574 1.131,0.873 1.302,1.517 0.1,0.376 -0.524,0.602 -0.642,0.972 -0.109,0.344 -0.136,0.744 -0.013,1.084 1.058,2.936 2.281,5.812 3.53,8.671 1.865,4.268 3.771,8.519 5.81,12.706 0.488,1.002 1.309,1.823 1.763,2.841 1.973,4.423 3.448,9.062 5.502,13.448 0.314,0.672 1.11,1 1.544,1.602 0.43,0.597 0.745,1.274 1.019,1.956 1.521,3.789 2.764,7.688 4.361,11.446 1.377,3.239 3.248,6.258 4.555,9.526 2.031,5.077 3.432,10.39 5.445,15.474 1.689,4.265 3.861,8.325 5.653,12.549 0.891,2.101 1.29,4.417 2.392,6.416 0.403,0.731 1.486,0.859 1.986,1.527 0.141,0.19 -0.519,0.366 -0.412,0.577 0.3,0.595 1.118,0.816 1.416,1.412 0.108,0.215 -0.524,0.373 -0.416,0.588 0.298,0.596 1.117,0.816 1.416,1.412 0.107,0.213 -0.504,0.362 -0.415,0.583 0.425,1.048 1.121,1.974 1.813,2.869 0.455,0.589 1.299,0.873 1.604,1.551 0.13,0.288 -0.484,0.458 -0.56,0.765 -0.134,0.546 -0.248,1.162 -0.043,1.685 0.28,0.714 1.166,1.088 1.415,1.813 0.135,0.393 -0.551,0.805 -0.386,1.186 0.294,0.676 1.277,0.877 1.575,1.551 0.127,0.287 -0.46,0.464 -0.553,0.764 -0.107,0.346 -0.135,0.743 -0.019,1.086 0.534,1.577 1.173,3.125 1.943,4.601 0.358,0.686 1.037,1.166 1.418,1.84 0.06,0.104 -0.278,0.196 -0.208,0.294 0.386,0.544 1.173,0.79 1.42,1.41 0.116,0.294 -0.461,0.467 -0.554,0.769 -0.106,0.345 -0.156,0.75 -0.015,1.082 1.404,3.284 2.988,6.491 4.61,9.672 0.692,1.357 1.437,2.698 2.329,3.933 0.438,0.608 1.312,0.87 1.628,1.55 0.133,0.284 -0.46,0.463 -0.552,0.763 -0.106,0.345 -0.159,0.752 -0.014,1.082 1.733,3.952 3.618,7.84 5.606,11.67 0.256,0.493 0.921,0.724 1.101,1.249 0.293,0.85 -0.107,1.862 0.255,2.685 0.299,0.682 1.298,0.873 1.605,1.551 0.134,0.297 -0.671,0.525 -0.533,0.82 1.295,2.785 3.374,5.163 4.621,7.969 0.163,0.367 -0.751,0.65 -0.622,1.03 0.411,1.215 1.494,2.097 2.07,3.244 1.809,3.601 3.457,7.282 5.072,10.974 3.555,8.127 6.719,16.425 10.434,24.48 0.605,1.312 1.853,2.251 2.494,3.546 1.348,2.725 2.14,5.7 3.441,8.448 0.556,1.175 1.678,2.053 2.111,3.278 0.13,0.367 -0.772,0.654 -0.598,1.001 0.591,1.184 2.014,1.813 2.598,2.999 0.172,0.349 -0.526,0.603 -0.642,0.974 -0.105,0.335 -0.174,0.754 0.009,1.054 0.192,0.316 0.719,0.271 0.967,0.546 0.655,0.726 1.406,1.463 1.689,2.399 0.12,0.395 -0.741,0.655 -0.645,1.057 0.239,0.996 0.935,1.833 1.538,2.661 0.611,0.838 1.66,1.363 2.084,2.309 0.16,0.356 -0.775,0.657 -0.598,1.004 0.554,1.088 1.837,1.657 2.482,2.692 0.355,0.569 0.087,1.384 0.421,1.965 0.371,0.644 1.241,0.902 1.603,1.551 0.116,0.209 -0.523,0.37 -0.415,0.583 0.3,0.596 1.166,0.794 1.42,1.411 0.12,0.292 -0.603,0.498 -0.51,0.8 0.108,0.347 0.689,0.297 0.932,0.567 0.968,1.075 2.007,2.137 2.664,3.425 0.143,0.281 -0.595,0.494 -0.51,0.798 0.188,0.671 0.898,1.083 1.212,1.705 0.053,0.106 -0.26,0.183 -0.207,0.289 0.513,1.008 1.121,1.974 1.813,2.869 0.454,0.589 1.24,0.903 1.601,1.553 0.115,0.209 -0.523,0.37 -0.415,0.583 0.3,0.596 1.166,0.794 1.42,1.411 0.12,0.292 -0.777,0.632 -0.509,0.801 0.375,0.237 0.857,-0.37 1.295,-0.304 0.33,0.049 0.607,0.335 0.788,0.615 0.903,1.4 1.517,2.973 2.427,4.368 1.619,2.486 3.719,4.661 5.149,7.261 0.334,0.607 0.137,1.402 -0.01,2.08 -0.083,0.382 -0.758,0.599 -0.651,0.974 0.167,0.589 0.712,1.122 1.298,1.299 0.374,0.114 0.627,-0.507 1.007,-0.6 0.137,-0.033 0.343,0.135 0.324,0.276 -0.093,0.702 -0.528,1.328 -0.629,2.029 -0.019,0.137 0.16,0.326 0.295,0.294 0.379,-0.088 0.613,-0.6 1.002,-0.596 0.333,0.004 0.608,0.335 0.788,0.615 0.952,1.486 2.084,2.932 2.57,4.628 0.199,0.692 -0.817,1.357 -0.655,2.059 0.083,0.358 0.788,-0.433 1.083,-0.212 0.859,0.643 1.443,1.606 2.003,2.522 1.256,2.058 2.191,4.299 3.425,6.37 0.293,0.493 0.954,0.747 1.139,1.29 0.221,0.647 0.144,1.383 10e-4,2.052 -0.082,0.383 -0.921,0.695 -0.651,0.978 0.307,0.321 0.857,-0.36 1.297,-0.302 0.311,0.042 0.593,0.3 0.748,0.573 1.93,3.411 3.49,7.024 5.466,10.409 0.371,0.637 1.179,0.947 1.537,1.592 1.325,2.383 2.11,5.044 3.464,7.41 1.334,2.33 3.237,4.301 4.574,6.628 3.606,6.279 6.661,12.864 10.238,19.16 0.826,1.453 2.059,2.641 2.951,4.054 0.841,1.33 1.37,2.842 2.236,4.156 0.416,0.632 1.196,0.978 1.576,1.632 2.901,4.995 5.624,10.096 8.228,15.252 1.8,3.565 3.17,7.336 4.978,10.897 1.261,2.485 2.605,4.945 4.217,7.218 0.845,1.193 1.966,2.178 3.099,3.102 0.793,0.647 1.673,1.227 2.636,1.577 M 331.952,570.519 c 0,0 0,0 0,0 0.283,-0.339 0.679,-0.611 0.849,-1.019 0.055,-0.13 -0.179,-0.373 -0.298,-0.298 -0.52,0.325 -1.065,0.735 -1.301,1.301 m 80.315,-98.712 c 0,0 0,0 0,0 -1.601,-1.2 -3.419,-2.155 -4.802,-3.601 -1.188,-1.242 -1.746,-2.972 -2.789,-4.338 -0.505,-0.662 -1.358,-1.017 -1.824,-1.707 -0.247,-0.365 0.028,-0.932 -0.208,-1.303 -0.399,-0.629 -1.29,-0.878 -1.605,-1.552 -0.133,-0.285 0.655,-0.515 0.509,-0.793 -1.392,-2.643 -3.425,-4.908 -4.882,-7.516 -0.74,-1.323 -0.949,-2.899 -1.682,-4.226 -0.355,-0.64 -1.201,-0.923 -1.527,-1.578 -2.998,-6.037 -5.44,-12.338 -8.394,-18.397 -0.571,-1.171 -1.672,-2.048 -2.164,-3.254 -0.258,-0.633 -0.421,-1.512 0,-2.05 1.218,-1.553 3.535,-2.089 4.563,-3.773 0.363,-0.594 -1.016,-1.021 -1.233,-1.682 -0.208,-0.631 -0.205,-1.369 0.021,-1.995 0.147,-0.406 0.57,-0.777 0.999,-0.825 0.387,-0.044 0.62,0.521 1.002,0.598 0.183,0.037 0.34,-0.17 0.474,-0.299 1.972,-1.903 3.804,-3.953 5.837,-5.79 1.416,-1.279 3.22,-2.125 4.496,-3.544 1.724,-1.917 2.673,-4.448 4.407,-6.356 1.623,-1.785 3.867,-2.912 5.57,-4.62 0.742,-0.744 1.019,-1.854 1.692,-2.662 1.003,-1.204 2.332,-2.112 3.308,-3.338 1.613,-2.025 2.84,-4.336 4.43,-6.38 0.751,-0.966 1.783,-1.683 2.57,-2.62 1.062,-1.263 2.109,-2.554 2.965,-3.966 0.997,-1.645 1.548,-3.536 2.57,-5.166 0.671,-1.072 1.846,-1.781 2.472,-2.88 1.288,-2.264 1.956,-4.842 3.221,-7.119 1.217,-2.193 2.603,-4.308 4.198,-6.243 1.862,-2.259 4.529,-3.839 6.131,-6.289 0.395,-0.604 -0.8,-1.35 -0.67,-2.06 0.178,-0.972 0.626,-2.985 1.512,-2.549 1.43,0.703 1.212,2.967 2.069,4.31 1.192,1.867 2.979,3.33 4.046,5.271 0.188,0.342 -0.658,0.619 -0.597,1.004 0.052,0.329 0.657,0.262 0.841,0.54 2.698,4.079 5.409,8.163 7.755,12.454 0.151,0.277 -0.598,0.495 -0.51,0.798 0.195,0.668 0.967,1.041 1.233,1.683 0.079,0.19 -0.51,0.455 -0.318,0.528 0.507,0.192 1.385,-0.516 1.627,-0.031 0.317,0.633 -0.884,1.369 -0.628,2.029 0.16,0.414 0.857,-0.368 1.296,-0.302 0.33,0.05 0.607,0.335 0.788,0.615 0.902,1.399 1.493,2.987 2.425,4.367 0.582,0.86 1.615,1.388 2.087,2.313 0.141,0.278 -0.696,0.539 -0.506,0.787 0.855,1.116 2.358,1.62 3.208,2.741 0.25,0.331 -0.461,0.907 -0.2,1.229 0.592,0.733 1.793,0.772 2.4,1.492 0.196,0.232 -0.437,0.464 -0.499,0.762 -0.029,0.139 0.137,0.287 0.273,0.329 0.535,0.164 1.235,-0.103 1.659,0.263 1.446,1.249 2.631,2.793 3.709,4.371 0.203,0.298 0.197,0.772 0.014,1.084 -0.892,1.523 -2.188,2.778 -3.145,4.261 -0.902,1.399 -1.407,3.048 -2.422,4.368 -2.333,3.032 -5.21,5.617 -7.574,8.626 -1.314,1.672 -2.154,3.679 -3.43,5.38 -0.734,0.979 -1.844,1.635 -2.57,2.62 -3.948,5.358 -7.351,11.112 -11.426,16.374 -1.089,1.405 -2.823,2.196 -3.993,3.534 -0.153,0.174 0.55,0.381 0.408,0.564 -0.689,0.885 -1.895,1.284 -2.554,2.192 -0.331,0.456 0.11,1.238 -0.25,1.672 -1.192,1.434 -2.938,2.321 -4.208,3.688 -0.708,0.762 -0.984,1.855 -1.669,2.638 -1.652,1.889 -3.722,3.393 -5.308,5.338 -1.344,1.648 -2.154,3.679 -3.43,5.38 -1.732,2.309 -3.876,4.292 -5.574,6.626 -0.979,1.347 -1.401,3.053 -2.422,4.368 M 764.527,418.79 c 0,0 0,0 0,0 -0.12,-0.437 -0.352,-0.858 -0.359,-1.31 -0.002,-0.146 0.255,-0.405 0.332,-0.282 0.245,0.387 0.324,0.875 0.332,1.332"
       id="path6" />
  </g>
</svg>
